<?xml version="1.0" encoding="UTF-8"?><svg xmlns="http://www.w3.org/2000/svg" xmlns:xlink="http://www.w3.org/1999/xlink" width="595.30px" height="841.90px" viewBox="0 0 595.30 841.90" style="background:white;"><rect width="100%" height="100%" fill="white"/><path d="M54.15 54.50H541.15V55.22H54.15Z" fill="rgb(0,0,0)" fill-rule="evenodd"/><text xml:space="preserve" font-family="'Times New Roman', serif" font-size="15.95" font-weight="normal" font-style="normal" font-variant="normal" fill="rgb(0,0,0)"><tspan x="159.480 167.520 175.560 183.480" y="93.41">2026</tspan></text><text xml:space="preserve" font-family="'SimHei', sans-serif" font-size="15.95" font-weight="normal" font-style="normal" font-variant="normal" fill="rgb(0,0,0)"><tspan x="191.455 195.480 211.440 227.520 243.479 259.559 275.519 291.478 307.558 323.517 339.476 355.440 371.399 387.479 403.439 419.398 435.478" y="93.41"> 年中考第一次模拟考试（湖北专用）</tspan></text><text xml:space="preserve" font-family="'SimHei', sans-serif" font-size="15.95" font-weight="normal" font-style="normal" font-variant="normal" fill="rgb(0,0,0)"><tspan x="289.440 305.399" y="124.61">生物</tspan></text><text xml:space="preserve" font-family="'KaiTi', serif" font-size="10.45" font-weight="normal" font-style="normal" font-variant="normal" fill="rgb(0,0,0)"><tspan x="208.440 218.880 229.439 239.879 250.439 260.878" y="149.81">（考试时间：</tspan></text><text xml:space="preserve" font-family="'Times New Roman', serif" font-size="10.45" font-weight="normal" font-style="normal" font-variant="normal" fill="rgb(0,0,0)"><tspan x="271.440 276.720" y="149.81">45</tspan></text><text xml:space="preserve" font-family="'KaiTi', serif" font-size="10.45" font-weight="normal" font-style="normal" font-variant="normal" fill="rgb(0,0,0)"><tspan x="281.945 284.520 294.960" y="149.81"> 分钟</tspan></text><text xml:space="preserve" font-family="'KaiTi', serif" font-size="10.45" font-weight="normal" font-style="normal" font-variant="normal" fill="rgb(0,0,0)"><tspan x="315.959 326.399 336.958 347.398 357.957" y="149.81">试卷满分：</tspan></text><text xml:space="preserve" font-family="'Times New Roman', serif" font-size="10.45" font-weight="normal" font-style="normal" font-variant="normal" fill="rgb(0,0,0)"><tspan x="368.520 373.800" y="149.81">50</tspan></text><text xml:space="preserve" font-family="'KaiTi', serif" font-size="10.45" font-weight="normal" font-style="normal" font-variant="normal" fill="rgb(0,0,0)"><tspan x="379.025 381.600 392.040" y="149.81"> 分）</tspan></text><text xml:space="preserve" font-family="'SimHei', sans-serif" font-size="10.45" font-weight="normal" font-style="normal" font-variant="normal" fill="rgb(0,0,0)"><tspan x="69.840 80.280 90.839 101.279 111.839" y="173.21">注意事项：</tspan></text><text xml:space="preserve" font-family="'Times New Roman', serif" font-size="10.45" font-weight="normal" font-style="normal" font-variant="normal" fill="rgb(0,0,0)"><tspan x="54.120" y="196.73">1</tspan></text><text xml:space="preserve" font-family="'SimSun', serif" font-size="10.45" font-weight="normal" font-style="normal" font-variant="normal" fill="rgb(0,0,0)"><tspan x="59.400 69.840 80.280 90.839 101.279 111.839 122.278 132.838 143.278 153.837 164.277 174.836 185.276 195.836 206.275 216.835 227.275 237.834 248.274 258.833 269.273 279.832 290.272 300.832 311.272 321.831 332.271 342.830" y="196.61">．答卷前，考生务必将自己的姓名、准考证号填写在答题卡上。</tspan></text><text xml:space="preserve" font-family="'Times New Roman', serif" font-size="10.45" font-weight="normal" font-style="normal" font-variant="normal" fill="rgb(0,0,0)"><tspan x="54.120" y="220.13">2</tspan></text><text xml:space="preserve" font-family="'SimSun', serif" font-size="10.45" font-weight="normal" font-style="normal" font-variant="normal" fill="rgb(0,0,0)"><tspan x="59.400 69.600 80.040 90.599 101.039 111.599 122.038 132.600 142.920 153.360 163.919 174.359 184.919 195.358 205.918 216.358 226.920 237.120 247.560 258.119 268.559 279.118 289.558 300.118 310.558 321.117 331.557 342.116 352.556 363.115 373.555 384.115 394.555 405.114 415.554 426.113 436.680 446.880 457.320 467.879 478.319 488.880 499.200 509.640 520.199 530.639" y="220.01">．回答选择题时，选出每小题答案后，用铅笔把答题卡上对应题目的答案标号涂黑。如需改动，用橡皮擦</tspan></text><text xml:space="preserve" font-family="'SimSun', serif" font-size="10.45" font-weight="normal" font-style="normal" font-variant="normal" fill="rgb(0,0,0)"><tspan x="69.840 80.280 90.839 101.279 111.839 122.278 132.838 143.278 153.837 164.277 174.836 185.276 195.836 206.275 216.835 227.275 237.834 248.274 258.833 269.273 279.832 290.272 300.832 311.272 321.831 332.271 342.830 353.270 363.829 374.269 384.829 395.269 405.828 416.268 426.827 437.267 447.826 458.266 468.826 479.265 489.825" y="243.41">干净后，再选涂其他答案标号。回答非选择题时，将答案写在答题卡上。写在本试卷上无效。</tspan></text><text xml:space="preserve" font-family="'Times New Roman', serif" font-size="10.45" font-weight="normal" font-style="normal" font-variant="normal" fill="rgb(0,0,0)"><tspan x="54.120" y="266.93">3</tspan></text><text xml:space="preserve" font-family="'SimSun', serif" font-size="10.45" font-weight="normal" font-style="normal" font-variant="normal" fill="rgb(0,0,0)"><tspan x="59.400 69.840 80.280 90.839 101.279 111.839 122.278 132.838 143.278 153.837 164.277 174.836 185.276 195.836 206.275 216.835 227.275 237.834 248.274 258.833" y="266.81">．考试结束后，将本试卷和答题卡一并交回。</tspan></text><text xml:space="preserve" font-family="'SimHei', sans-serif" font-size="12.00" font-weight="normal" font-style="normal" font-variant="normal" fill="rgb(0,0,0)"><tspan x="54.120 66.120 78.120 90.120 102.120 114.120 126.120 138.120 150.120" y="290.81">一、选择题（本题共</tspan></text><text xml:space="preserve" font-family="'Times New Roman', serif" font-size="12.00" font-weight="normal" font-style="normal" font-variant="normal" fill="rgb(0,0,0)"><tspan x="165.120 171.120" y="290.81">10</tspan></text><text xml:space="preserve" font-family="'SimHei', sans-serif" font-size="12.00" font-weight="normal" font-style="normal" font-variant="normal" fill="rgb(0,0,0)"><tspan x="177.120 180.120 192.120 204.120 216.120 228.120 240.120 252.120" y="290.81"> 个小题，每小题</tspan></text><text xml:space="preserve" font-family="'Times New Roman', serif" font-size="12.00" font-weight="normal" font-style="normal" font-variant="normal" fill="rgb(0,0,0)"><tspan x="267.120" y="290.81">2</tspan></text><text xml:space="preserve" font-family="'SimHei', sans-serif" font-size="12.00" font-weight="normal" font-style="normal" font-variant="normal" fill="rgb(0,0,0)"><tspan x="273.120 276.120 288.120 300.120" y="290.81"> 分，共</tspan></text><text xml:space="preserve" font-family="'Times New Roman', serif" font-size="12.00" font-weight="normal" font-style="normal" font-variant="normal" fill="rgb(0,0,0)"><tspan x="315.120 321.120" y="290.81">20</tspan></text><text xml:space="preserve" font-family="'SimHei', sans-serif" font-size="12.00" font-weight="normal" font-style="normal" font-variant="normal" fill="rgb(0,0,0)"><tspan x="327.120 330.120 342.120 354.120 366.120 378.120 390.120 402.120 414.120 426.120 438.120 450.120 462.120 474.120 486.120 498.120 510.120 522.120 534.120" y="290.81"> 分。每小题只有一个选项符合题目要求）</tspan></text><text xml:space="preserve" font-family="'Times New Roman', serif" font-size="10.45" font-weight="normal" font-style="normal" font-variant="normal" fill="rgb(0,0,0)"><tspan x="54.120" y="313.73">1</tspan></text><text xml:space="preserve" font-family="'SimSun', serif" font-size="10.45" font-weight="normal" font-style="normal" font-variant="normal" fill="rgb(0,0,0)"><tspan x="59.400 69.600" y="313.61">．（</tspan></text><text xml:space="preserve" font-family="'SimSun', serif" font-size="10.45" font-weight="normal" font-style="normal" font-variant="normal" fill="rgb(0,0,255)"><tspan x="80.040 90.480 101.039 111.479" y="313.61">湖北特色</tspan></text><text xml:space="preserve" font-family="'SimSun', serif" font-size="10.45" font-weight="normal" font-style="normal" font-variant="normal" fill="rgb(0,0,0)"><tspan x="122.040 132.359 142.799 153.358 163.798 174.357 184.797 195.357 205.797 216.356 226.796 237.355 247.800 258.120 268.560 279.119 289.559 300.118 310.558 321.118 331.558 342.117 352.557 363.116 373.556 384.115 394.555 405.115 415.555 426.114 436.554 447.120 457.440 467.880 478.440 488.759 499.199 509.758 520.320 530.640" y="313.61">）以特色产业助力乡村振兴，湖北省宜昌市秭归县的现代农业产业园里，脐橙、伦晚橙、夏</tspan></text><text xml:space="preserve" font-family="'SimSun', serif" font-size="10.45" font-weight="normal" font-style="normal" font-variant="normal" fill="rgb(0,0,0)"><tspan x="69.840 80.280 90.839 101.279 111.839 122.278 132.838 143.278 153.837 164.277 174.836 185.276 195.840 205.920 216.360 226.919 237.359 247.919 258.358 268.918 279.358 289.917 300.357 310.916 321.356 331.915 342.355 352.915 363.355 373.919 384.000 394.440 404.999 415.439 425.998 436.438 446.998 457.438 468.000 478.200 488.640 499.199 509.639 520.198 530.638" y="337.01">橙等一批特色柑橘陆续成熟，吸引了不少周边的游客前去观光采摘，有效促进农民增收。下列关于植株</tspan></text><text xml:space="preserve" font-family="'SimSun', serif" font-size="10.45" font-weight="normal" font-style="normal" font-variant="normal" fill="rgb(0,0,0)"><tspan x="69.840 80.280 90.839 101.279 111.839 122.278 132.838 143.278 153.837 164.277 174.836" y="360.41">生长的描述，错误的是（</tspan></text><text xml:space="preserve" font-family="'SimSun', serif" font-size="10.45" font-weight="normal" font-style="normal" font-variant="normal" fill="rgb(0,0,0)"><tspan x="206.400" y="360.41">）</tspan></text><text xml:space="preserve" font-family="'Times New Roman', serif" font-size="10.45" font-weight="normal" font-style="normal" font-variant="normal" fill="rgb(0,0,0)"><tspan x="69.840 77.399" y="383.93">A.</tspan></text><text xml:space="preserve" font-family="'SimSun', serif" font-size="10.45" font-weight="normal" font-style="normal" font-variant="normal" fill="rgb(0,0,0)"><tspan x="80.012 85.320 95.760 106.319 116.759 127.319 137.758 148.318 158.758 169.317 179.757 190.316 200.756 211.316 221.755 232.315 242.755 253.314 263.754 274.313 284.753 295.312 305.752 316.312 326.752 337.311 347.751 358.310 368.750 379.309" y="383.93"> 植株生长需要无机盐，其中最主要的是含氮、含磷、含钾的无机盐</tspan></text><text xml:space="preserve" font-family="'Times New Roman', serif" font-size="10.45" font-weight="normal" font-style="normal" font-variant="normal" fill="rgb(0,0,0)"><tspan x="69.840 76.799" y="407.33">B.</tspan></text><text xml:space="preserve" font-family="'SimSun', serif" font-size="10.45" font-weight="normal" font-style="normal" font-variant="normal" fill="rgb(0,0,0)"><tspan x="79.412 84.720 95.160 105.719 116.159 126.719 137.158 147.718 158.158 168.717 179.157 189.716 200.156 210.716" y="407.33"> 种子由子房中的胚珠发育而来</tspan></text><text xml:space="preserve" font-family="'Times New Roman', serif" font-size="10.45" font-weight="normal" font-style="normal" font-variant="normal" fill="rgb(0,0,0)"><tspan x="69.840 76.799" y="430.73">C.</tspan></text><text xml:space="preserve" font-family="'SimSun', serif" font-size="10.45" font-weight="normal" font-style="normal" font-variant="normal" fill="rgb(0,0,0)"><tspan x="79.412 84.720 95.160 105.719 116.159 126.719 137.158 147.718 158.158 168.717 179.157 189.716 200.156 210.716 221.155 231.715 242.155" y="430.73"> 柑橘生长所需的水主要通过根毛吸收</tspan></text><text xml:space="preserve" font-family="'Times New Roman', serif" font-size="10.45" font-weight="normal" font-style="normal" font-variant="normal" fill="rgb(0,0,0)"><tspan x="69.840 77.399" y="454.13">D.</tspan></text><text xml:space="preserve" font-family="'SimSun', serif" font-size="10.45" font-weight="normal" font-style="normal" font-variant="normal" fill="rgb(0,0,0)"><tspan x="80.012 85.320 95.760 106.319 116.759 127.319 137.758 148.318 158.758 169.317 179.757 190.316" y="454.13"> 所有的芽都能发育成枝条</tspan></text><text xml:space="preserve" font-family="'Times New Roman', serif" font-size="10.45" font-weight="normal" font-style="normal" font-variant="normal" fill="rgb(0,0,0)"><tspan x="54.120" y="477.53">2</tspan></text><text xml:space="preserve" font-family="'SimSun', serif" font-size="10.45" font-weight="normal" font-style="normal" font-variant="normal" fill="rgb(0,0,0)"><tspan x="59.400 69.480" y="477.41">．（</tspan></text><text xml:space="preserve" font-family="'SimSun', serif" font-size="10.45" font-weight="normal" font-style="normal" font-variant="normal" fill="rgb(0,0,255)"><tspan x="79.920 90.360 100.919 111.359" y="477.41">爱国教育</tspan></text><text xml:space="preserve" font-family="'SimSun', serif" font-size="10.45" font-weight="normal" font-style="normal" font-variant="normal" fill="rgb(0,0,0)"><tspan x="121.920 132.000 142.559 152.999 163.558 174.000 184.320 194.760 205.319 215.759 226.320 236.640 247.080 257.639 268.079 278.638 289.078 299.638 310.078 320.637 331.077 341.636 352.076 362.635 373.075 383.635 394.075 404.634 415.074 425.633 436.073 446.632 457.072 467.632 478.071 488.631 499.071 509.630 520.070 530.629" y="477.41">）《志愿军：存亡之战》以宏大的叙事和逼真的场景描绘了志愿军战士们在极端艰难困苦的</tspan></text><text xml:space="preserve" font-family="'SimSun', serif" font-size="10.45" font-weight="normal" font-style="normal" font-variant="normal" fill="rgb(0,0,0)"><tspan x="54.120 64.560 75.119 85.559 96.118 106.558 117.118 127.558 138.117 148.557 159.116 169.556 180.116 190.555 201.115 211.555 222.114 232.554 243.113 253.553 264.113 274.552 285.112 295.552 306.111 316.551 327.110 337.550 348.109 358.549 369.109 379.549 390.108 400.548 411.107 421.547 432.106 442.546 453.106 463.546 474.105 484.545 495.104 505.544 516.103 526.543" y="500.81">条件下，为了国家的独立、民族的尊严，毅然决然奔赴战场，与强大的敌人展开殊死搏斗。下列相关说法</tspan></text><text xml:space="preserve" font-family="'SimSun', serif" font-size="10.45" font-weight="normal" font-style="normal" font-variant="normal" fill="rgb(0,0,0)"><tspan x="54.120 64.560 75.119 85.559 96.118" y="524.21">正确的是（</tspan></text><text xml:space="preserve" font-family="'SimSun', serif" font-size="10.45" font-weight="normal" font-style="normal" font-variant="normal" fill="rgb(0,0,0)"><tspan x="127.680" y="524.21">）</tspan></text><text xml:space="preserve" font-family="'Times New Roman', serif" font-size="10.45" font-weight="normal" font-style="normal" font-variant="normal" fill="rgb(0,0,0)"><tspan x="73.200" y="547.73">A</tspan></text><text xml:space="preserve" font-family="'SimSun', serif" font-size="10.45" font-weight="normal" font-style="normal" font-variant="normal" fill="rgb(0,0,0)"><tspan x="80.640 91.080 101.639 112.079 122.639 133.078 143.638 154.078 164.637 175.077 185.636 196.076 206.636 217.075 227.635 238.075 248.634 259.074 269.633 280.073 290.632 301.072" y="547.61">．人们在看电影时激动得落泪，这属于非条件反射</tspan></text><text xml:space="preserve" font-family="'Times New Roman', serif" font-size="10.45" font-weight="normal" font-style="normal" font-variant="normal" fill="rgb(0,0,0)"><tspan x="73.200" y="571.13">B</tspan></text><text xml:space="preserve" font-family="'SimSun', serif" font-size="10.45" font-weight="normal" font-style="normal" font-variant="normal" fill="rgb(0,0,0)"><tspan x="80.159 90.599 101.158 111.598 122.158 132.597 143.157 153.597 164.156 174.596 185.155 195.595 206.155 216.594 227.154 237.594 248.153 258.593" y="571.01">．观看电影时，视觉形成的部位是视网膜</tspan></text><text xml:space="preserve" font-family="'Times New Roman', serif" font-size="10.45" font-weight="normal" font-style="normal" font-variant="normal" fill="rgb(0,0,0)"><tspan x="73.200" y="594.53">C</tspan></text><text xml:space="preserve" font-family="'SimSun', serif" font-size="10.45" font-weight="normal" font-style="normal" font-variant="normal" fill="rgb(0,0,0)"><tspan x="80.159 90.599 101.158 111.598 122.158 132.597 143.157 153.597 164.156 174.596 185.155 195.595 206.155 216.594 227.154 237.594 248.153 258.593 269.152 279.592 290.151 300.591 311.151 321.591 332.150 342.590" y="594.41">．和坐在前排相比，坐在后排观看电影时晶状体的曲度更小</tspan></text><text xml:space="preserve" font-family="'Times New Roman', serif" font-size="10.45" font-weight="normal" font-style="normal" font-variant="normal" fill="rgb(0,0,0)"><tspan x="73.200" y="617.93">D</tspan></text><text xml:space="preserve" font-family="'SimSun', serif" font-size="10.45" font-weight="normal" font-style="normal" font-variant="normal" fill="rgb(0,0,0)"><tspan x="80.640 91.080 101.639 112.079 122.639 133.078 143.638 154.078 164.637 175.077 185.636 196.076 206.636 217.075 227.635 238.075 248.634 259.074 269.633 280.073 290.632" y="617.81">．观众听到电影中激昂的声音与鼓膜的振动无关</tspan></text><text xml:space="preserve" font-family="'Times New Roman', serif" font-size="10.45" font-weight="normal" font-style="normal" font-variant="normal" fill="rgb(0,0,0)"><tspan x="54.120" y="641.33">3</tspan></text><text xml:space="preserve" font-family="'SimSun', serif" font-size="10.45" font-weight="normal" font-style="normal" font-variant="normal" fill="rgb(0,0,0)"><tspan x="59.400 69.840 80.399 90.839 101.399 111.838 122.398 132.838 143.397 153.837 164.396 174.836 185.396 195.835 206.395 216.835 227.394 237.834 248.393 258.833 269.393 279.832 290.392 300.832 311.391 321.831 332.390 342.830 353.389 363.829 374.389 384.829 395.388 405.828" y="641.21">．人类的生活和生产往往需要合理利用植物的生理活动，下列叙述错误的是（</tspan></text><text xml:space="preserve" font-family="'SimSun', serif" font-size="10.45" font-weight="normal" font-style="normal" font-variant="normal" fill="rgb(0,0,0)"><tspan x="437.400" y="641.21">）</tspan></text><text xml:space="preserve" font-family="'Times New Roman', serif" font-size="10.45" font-weight="normal" font-style="normal" font-variant="normal" fill="rgb(0,0,0)"><tspan x="73.200" y="664.73">A</tspan></text><text xml:space="preserve" font-family="'SimSun', serif" font-size="10.45" font-weight="normal" font-style="normal" font-variant="normal" fill="rgb(0,0,0)"><tspan x="80.640 91.080 101.639 112.079 122.639 133.078 143.638 154.078 164.637 175.077 185.636 196.076 206.636 217.075 227.635 238.075 248.634 259.074 269.633 280.073 290.632" y="664.61">．扦插薄荷剪去大量叶片的目的是降低光合作用</tspan></text><text xml:space="preserve" font-family="'Times New Roman', serif" font-size="10.45" font-weight="normal" font-style="normal" font-variant="normal" fill="rgb(0,0,0)"><tspan x="73.200" y="688.13">B</tspan></text><text xml:space="preserve" font-family="'SimSun', serif" font-size="10.45" font-weight="normal" font-style="normal" font-variant="normal" fill="rgb(0,0,0)"><tspan x="80.159 90.599 101.158 111.598 122.158 132.597 143.157 153.597 164.156 174.596 185.155 195.595 206.155 216.594 227.154" y="688.01">．合理密植可以提高农作物的产量</tspan></text><text xml:space="preserve" font-family="'Times New Roman', serif" font-size="10.45" font-weight="normal" font-style="normal" font-variant="normal" fill="rgb(0,0,0)"><tspan x="73.200" y="711.53">C</tspan></text><text xml:space="preserve" font-family="'SimSun', serif" font-size="10.45" font-weight="normal" font-style="normal" font-variant="normal" fill="rgb(0,0,0)"><tspan x="80.159 90.599 101.158 111.598 122.158 132.597 143.157 153.597 164.156 174.596 185.155 195.595 206.155 216.594 227.154 237.594 248.153 258.593 269.152 279.592 290.151" y="711.41">．种植庄稼及时松土的目的是促进根的呼吸作用</tspan></text><text xml:space="preserve" font-family="'Times New Roman', serif" font-size="10.45" font-weight="normal" font-style="normal" font-variant="normal" fill="rgb(0,0,0)"><tspan x="73.200" y="734.93">D</tspan></text><text xml:space="preserve" font-family="'SimSun', serif" font-size="10.45" font-weight="normal" font-style="normal" font-variant="normal" fill="rgb(0,0,0)"><tspan x="80.640 91.080 101.639 112.079 122.639 133.078 143.638 154.078 164.637 175.077 185.636 196.076 206.636 217.075 227.635 238.075 248.634 259.074 269.633 280.073 290.632 301.072 311.632 322.072 332.631 343.071 353.630 364.070 374.629" y="734.81">．地窖储藏土豆、白菜留通风孔的目的是降低温度，抑制呼吸作用</tspan></text><text xml:space="preserve" font-family="'SimSun', serif" font-size="10.45" font-weight="normal" font-style="normal" font-variant="normal" fill="rgb(0,0,0)"><tspan x="75.120 85.560 96.119 106.559 117.119 127.558 138.118 148.558 159.117 169.557 180.116 190.556 201.116 211.555 222.115 232.555 243.114 253.554 264.113 274.553 285.112 295.552 306.112 316.552 327.111 337.551" y="758.21">带状疱疹是春季最易流行的一种病毒感染性皮肤病，由水痘</tspan></text><text xml:space="preserve" font-family="'Times New Roman', serif" font-size="10.45" font-weight="normal" font-style="normal" font-variant="normal" fill="rgb(0,0,0)"><tspan x="348.120" y="758.33">-</tspan></text><text xml:space="preserve" font-family="'SimSun', serif" font-size="10.45" font-weight="normal" font-style="normal" font-variant="normal" fill="rgb(0,0,0)"><tspan x="351.600 362.040 372.599 383.039 393.598 404.038 414.598 425.038 435.597 446.037 456.596 467.036 477.595 488.035 498.595 509.035 519.594 530.034" y="758.21">带状疱疹病毒感染后，潜伏在体内复发，</tspan></text></svg>