<?xml version="1.0" encoding="UTF-8"?><svg xmlns="http://www.w3.org/2000/svg" xmlns:xlink="http://www.w3.org/1999/xlink" width="595.30px" height="841.90px" viewBox="0 0 595.30 841.90" style="background:white;"><rect width="100%" height="100%" fill="white"/><path d="M54.15 54.50H541.15V55.22H54.15Z" fill="rgb(0,0,0)" fill-rule="evenodd"/><text xml:space="preserve" font-family="'SimSun', serif" font-size="10.45" font-weight="normal" font-style="normal" font-variant="normal" fill="rgb(0,0,0)"><tspan x="54.120 64.560 75.119 85.559 96.118 106.558 117.118 127.558 138.117 148.557 159.116 169.556 180.116 190.555 201.115 211.555 222.114 232.554 243.113 253.553 264.113 274.552 285.112 295.552 306.111 316.551 327.110 337.550 348.109 358.680 369.120 379.680 390.120" y="87.41">造成沿神经支配的皮肤区出现带状排列的成簇疱疹，伴随神经痛。据此完成</tspan></text><text xml:space="preserve" font-family="'Times New Roman', serif" font-size="10.45" font-weight="normal" font-style="normal" font-variant="normal" fill="rgb(0,0,0)"><tspan x="403.200 408.480 414.120" y="87.53">4~5</tspan></text><text xml:space="preserve" font-family="'SimSun', serif" font-size="10.45" font-weight="normal" font-style="normal" font-variant="normal" fill="rgb(0,0,0)"><tspan x="419.345 422.040 432.480" y="87.53"> 题。</tspan></text><text xml:space="preserve" font-family="'Times New Roman', serif" font-size="10.45" font-weight="normal" font-style="normal" font-variant="normal" fill="rgb(0,0,0)"><tspan x="54.120" y="110.93">4</tspan></text><text xml:space="preserve" font-family="'SimSun', serif" font-size="10.45" font-weight="normal" font-style="normal" font-variant="normal" fill="rgb(0,0,0)"><tspan x="59.400 69.840 80.399 90.839 101.399 111.838 122.398 132.838 143.397 153.837 164.396 174.836 185.396 195.835 206.395 216.835 227.394" y="110.81">．下列有关微生物的说法，正确的是（</tspan></text><text xml:space="preserve" font-family="'SimSun', serif" font-size="10.45" font-weight="normal" font-style="normal" font-variant="normal" fill="rgb(0,0,0)"><tspan x="249.840" y="110.81">）</tspan></text><text xml:space="preserve" font-family="'Times New Roman', serif" font-size="10.45" font-weight="normal" font-style="normal" font-variant="normal" fill="rgb(0,0,0)"><tspan x="69.120" y="134.33">A</tspan></text><text xml:space="preserve" font-family="'SimSun', serif" font-size="10.45" font-weight="normal" font-style="normal" font-variant="normal" fill="rgb(0,0,0)"><tspan x="76.680 87.120 97.679 108.119 118.679 129.118 139.678 150.118 160.677 171.117 181.676 192.116 202.676 213.115 223.675 234.115 244.674 255.114" y="134.21">．细菌和酵母菌细胞内没有成形的细胞核</tspan></text><text xml:space="preserve" font-family="'Times New Roman', serif" font-size="10.45" font-weight="normal" font-style="normal" font-variant="normal" fill="rgb(0,0,0)"><tspan x="69.120" y="157.73">B</tspan></text><text xml:space="preserve" font-family="'SimSun', serif" font-size="10.45" font-weight="normal" font-style="normal" font-variant="normal" fill="rgb(0,0,0)"><tspan x="76.200 86.640 97.199 107.639 118.199 128.638 139.198 149.638 160.197 170.637 181.196" y="157.61">．细菌通过芽孢繁殖后代</tspan></text><text xml:space="preserve" font-family="'Times New Roman', serif" font-size="10.45" font-weight="normal" font-style="normal" font-variant="normal" fill="rgb(0,0,0)"><tspan x="69.120" y="181.13">C</tspan></text><text xml:space="preserve" font-family="'SimSun', serif" font-size="10.45" font-weight="normal" font-style="normal" font-variant="normal" fill="rgb(0,0,0)"><tspan x="76.200 86.640 97.199 107.639 118.199 128.638 139.198 149.638 160.197 170.637 181.196 191.636 202.196 212.635 223.195 233.635" y="181.01">．真菌有细胞结构，都是单细胞生物</tspan></text><text xml:space="preserve" font-family="'Times New Roman', serif" font-size="10.45" font-weight="normal" font-style="normal" font-variant="normal" fill="rgb(0,0,0)"><tspan x="69.120" y="204.53">D</tspan></text><text xml:space="preserve" font-family="'SimSun', serif" font-size="10.45" font-weight="normal" font-style="normal" font-variant="normal" fill="rgb(0,0,0)"><tspan x="76.680 87.120 97.679 108.119 118.679 129.118 139.678 150.118 160.677 171.117 181.676 192.116 202.676 213.115 223.675 234.115 244.674 255.114 265.673 276.113 286.672 297.112 307.672 318.112" y="204.41">．病毒在所生活的细胞中通过自我复制的方式进行增殖</tspan></text><text xml:space="preserve" font-family="'Times New Roman', serif" font-size="10.45" font-weight="normal" font-style="normal" font-variant="normal" fill="rgb(0,0,0)"><tspan x="54.120" y="227.93">5</tspan></text><text xml:space="preserve" font-family="'SimSun', serif" font-size="10.45" font-weight="normal" font-style="normal" font-variant="normal" fill="rgb(0,0,0)"><tspan x="59.400 69.840 80.399 90.839 101.399 111.838 122.398" y="227.81">．带状疱疹病毒</tspan></text><text xml:space="preserve" font-family="'Times New Roman', serif" font-size="10.45" font-weight="normal" font-style="normal" font-variant="normal" fill="rgb(0,0,0)"><tspan x="138.120 141.600 149.159 155.519 163.078" y="227.93">(VZV)</tspan></text><text xml:space="preserve" font-family="'SimSun', serif" font-size="10.45" font-weight="normal" font-style="normal" font-variant="normal" fill="rgb(0,0,0)"><tspan x="166.558 171.959 182.399 192.958" y="227.93"> 是一种</tspan></text><text xml:space="preserve" font-family="'Times New Roman', serif" font-size="10.45" font-weight="normal" font-style="normal" font-variant="normal" fill="rgb(0,0,0)"><tspan x="206.040 213.599 221.159" y="227.93">DNA</tspan></text><text xml:space="preserve" font-family="'SimSun', serif" font-size="10.45" font-weight="normal" font-style="normal" font-variant="normal" fill="rgb(0,0,0)"><tspan x="228.705 231.480 241.920 252.479 262.919 273.478 283.918 294.478 304.918 315.477 325.917 336.476 346.916 357.475" y="227.93"> 病毒，会引起皮肤疱疹，接种</tspan></text><text xml:space="preserve" font-family="'Times New Roman', serif" font-size="10.45" font-weight="normal" font-style="normal" font-variant="normal" fill="rgb(0,0,0)"><tspan x="370.559 378.118 384.478" y="227.93">VZV</tspan></text><text xml:space="preserve" font-family="'SimSun', serif" font-size="10.45" font-weight="normal" font-style="normal" font-variant="normal" fill="rgb(0,0,0)"><tspan x="392.024 397.200 407.640 418.199 428.639 439.198 449.638 465.480 475.920 486.479 496.919 507.478 517.918 528.478" y="227.93"> 疫苗可以有效预防该疾病的发</tspan></text><text xml:space="preserve" font-family="'SimSun', serif" font-size="10.45" font-weight="normal" font-style="normal" font-variant="normal" fill="rgb(0,0,0)"><tspan x="54.120 64.560 75.119 85.559 96.118 106.558 117.118 127.558 138.117 148.557 159.116" y="251.21">生。下列说法错误的是（</tspan></text><text xml:space="preserve" font-family="'SimSun', serif" font-size="10.45" font-weight="normal" font-style="normal" font-variant="normal" fill="rgb(0,0,0)"><tspan x="181.680" y="251.21">）</tspan></text><text xml:space="preserve" font-family="'Times New Roman', serif" font-size="10.45" font-weight="normal" font-style="normal" font-variant="normal" fill="rgb(0,0,0)"><tspan x="69.120" y="274.73">A</tspan></text><text xml:space="preserve" font-family="'SimSun', serif" font-size="10.45" font-weight="normal" font-style="normal" font-variant="normal" fill="rgb(0,0,0)"><tspan x="76.680" y="274.61">．</tspan></text><text xml:space="preserve" font-family="'Times New Roman', serif" font-size="10.45" font-weight="normal" font-style="normal" font-variant="normal" fill="rgb(0,0,0)"><tspan x="87.240 94.799 101.159" y="274.73">VZV</tspan></text><text xml:space="preserve" font-family="'SimSun', serif" font-size="10.45" font-weight="normal" font-style="normal" font-variant="normal" fill="rgb(0,0,0)"><tspan x="108.705 111.359 121.799 132.358 142.798 153.357 163.797 174.357 184.797 195.356 205.796" y="274.73"> 的结构由蛋白质外壳和</tspan></text><text xml:space="preserve" font-family="'Times New Roman', serif" font-size="10.45" font-weight="normal" font-style="normal" font-variant="normal" fill="rgb(0,0,0)"><tspan x="219.000 226.559 234.119" y="274.73">DNA</tspan></text><text xml:space="preserve" font-family="'SimSun', serif" font-size="10.45" font-weight="normal" font-style="normal" font-variant="normal" fill="rgb(0,0,0)"><tspan x="241.665 244.440 254.880" y="274.73"> 组成</tspan></text><text xml:space="preserve" font-family="'Times New Roman', serif" font-size="10.45" font-weight="normal" font-style="normal" font-variant="normal" fill="rgb(0,0,0)"><tspan x="69.120" y="298.13">B</tspan></text><text xml:space="preserve" font-family="'SimSun', serif" font-size="10.45" font-weight="normal" font-style="normal" font-variant="normal" fill="rgb(0,0,0)"><tspan x="76.200 86.640 97.199" y="298.01">．接种</tspan></text><text xml:space="preserve" font-family="'Times New Roman', serif" font-size="10.45" font-weight="normal" font-style="normal" font-variant="normal" fill="rgb(0,0,0)"><tspan x="110.280 117.839 124.199" y="298.13">VZV</tspan></text><text xml:space="preserve" font-family="'SimSun', serif" font-size="10.45" font-weight="normal" font-style="normal" font-variant="normal" fill="rgb(0,0,0)"><tspan x="131.745 134.400 144.840 155.399 165.839 176.398 186.838 197.398 207.838 218.397 228.837" y="298.13"> 疫苗属于保护易感人群</tspan></text><text xml:space="preserve" font-family="'Times New Roman', serif" font-size="10.45" font-weight="normal" font-style="normal" font-variant="normal" fill="rgb(0,0,0)"><tspan x="69.120" y="321.53">C</tspan></text><text xml:space="preserve" font-family="'SimSun', serif" font-size="10.45" font-weight="normal" font-style="normal" font-variant="normal" fill="rgb(0,0,0)"><tspan x="76.200 86.640 97.199 107.639 118.199 128.638 139.198 149.638" y="321.41">．从免疫学角度，</tspan></text><text xml:space="preserve" font-family="'Times New Roman', serif" font-size="10.45" font-weight="normal" font-style="normal" font-variant="normal" fill="rgb(0,0,0)"><tspan x="160.200 167.759 174.119" y="321.53">VZV</tspan></text><text xml:space="preserve" font-family="'SimSun', serif" font-size="10.45" font-weight="normal" font-style="normal" font-variant="normal" fill="rgb(0,0,0)"><tspan x="181.665 184.320 194.760 205.319 215.759 226.319 236.758" y="321.53"> 疫苗属于抗体</tspan></text><text xml:space="preserve" font-family="'Times New Roman', serif" font-size="10.45" font-weight="normal" font-style="normal" font-variant="normal" fill="rgb(0,0,0)"><tspan x="69.120" y="344.93">D</tspan></text><text xml:space="preserve" font-family="'SimSun', serif" font-size="10.45" font-weight="normal" font-style="normal" font-variant="normal" fill="rgb(0,0,0)"><tspan x="76.680 87.120 97.679" y="344.81">．接种</tspan></text><text xml:space="preserve" font-family="'Times New Roman', serif" font-size="10.45" font-weight="normal" font-style="normal" font-variant="normal" fill="rgb(0,0,0)"><tspan x="110.880 118.439 124.799" y="344.93">VZV</tspan></text><text xml:space="preserve" font-family="'SimSun', serif" font-size="10.45" font-weight="normal" font-style="normal" font-variant="normal" fill="rgb(0,0,0)"><tspan x="132.345 135.000 145.440 155.999 166.439 176.999 187.438 197.998 208.438 218.997 229.437 239.996 250.436 260.996 271.435" y="344.93"> 疫苗获得的免疫属于特异性免疫</tspan></text><text xml:space="preserve" font-family="'Times New Roman', serif" font-size="10.45" font-weight="normal" font-style="normal" font-variant="normal" fill="rgb(0,0,0)"><tspan x="54.120" y="368.33">6</tspan></text><text xml:space="preserve" font-family="'SimSun', serif" font-size="10.45" font-weight="normal" font-style="normal" font-variant="normal" fill="rgb(0,0,0)"><tspan x="59.400 69.600 80.040 90.599 101.039 111.599 122.038 132.598 143.038 153.597 164.037 174.596 185.036 195.596 206.035 216.595 227.035 237.594 248.034 258.593 269.033 279.600 289.800 300.240 310.799 321.239 331.800 342.000 352.440 362.999 373.439 383.998 394.438 404.998 415.438" y="368.21">．某校组织学生去森林野生动物园开展研学活动。在水族馆，发现一种小型鲸类</tspan></text><text xml:space="preserve" font-family="'Times New Roman', serif" font-size="10.45" font-weight="normal" font-style="normal" font-variant="normal" fill="rgb(0,0,0)"><tspan x="426.000 436.440" y="368.33">——</tspan></text><text xml:space="preserve" font-family="'SimSun', serif" font-size="10.45" font-weight="normal" font-style="normal" font-variant="normal" fill="rgb(0,0,0)"><tspan x="447.000 457.440 468.000 478.200 488.640 499.199 509.639 520.198 530.638" y="368.21">江豚，被称作长江生</tspan></text><text xml:space="preserve" font-family="'SimSun', serif" font-size="10.45" font-weight="normal" font-style="normal" font-variant="normal" fill="rgb(0,0,0)"><tspan x="54.120 64.680 75.120 85.680 96.120 106.679 117.120 127.680 138.120 148.680 159.120 169.679 180.119 190.678 201.120 211.680 222.120 232.679 243.119 253.678 264.118 274.678 285.118 295.677 306.117 316.676 327.116 337.675 348.115 358.675" y="391.61">态的“活化石”和“水中大熊猫”。下列关于江豚的说法正确的是（</tspan></text><text xml:space="preserve" font-family="'SimSun', serif" font-size="10.45" font-weight="normal" font-style="normal" font-variant="normal" fill="rgb(0,0,0)"><tspan x="381.120" y="391.61">）</tspan></text><text xml:space="preserve" font-family="'Times New Roman', serif" font-size="10.45" font-weight="normal" font-style="normal" font-variant="normal" fill="rgb(0,0,0)"><tspan x="73.200" y="415.13">A</tspan></text><text xml:space="preserve" font-family="'SimSun', serif" font-size="10.45" font-weight="normal" font-style="normal" font-variant="normal" fill="rgb(0,0,0)"><tspan x="80.640 91.080 101.639 112.079 122.639 133.078 143.638 154.078 164.637 175.077 185.636 196.076 206.636 217.075 227.635 238.075 248.634 259.074 269.633 280.073" y="415.01">．江豚有和鲨鱼一样的鳍，帮助其在水中游泳</tspan></text><text xml:space="preserve" font-family="'Times New Roman', serif" font-size="10.45" font-weight="normal" font-style="normal" font-variant="normal" fill="rgb(0,0,0)"><tspan x="73.200" y="438.53">B</tspan></text><text xml:space="preserve" font-family="'SimSun', serif" font-size="10.45" font-weight="normal" font-style="normal" font-variant="normal" fill="rgb(0,0,0)"><tspan x="80.159 90.599 101.158 111.598 122.158 132.597 143.157 153.597 164.156 174.596 185.155 195.595 206.155 216.594 227.154 237.594 248.153 258.593 269.152 279.592 290.151" y="438.41">．江豚与大熊猫的生殖发育方式均为胎生、哺乳</tspan></text><text xml:space="preserve" font-family="'Times New Roman', serif" font-size="10.45" font-weight="normal" font-style="normal" font-variant="normal" fill="rgb(0,0,0)"><tspan x="73.200" y="461.93">C</tspan></text><text xml:space="preserve" font-family="'SimSun', serif" font-size="10.45" font-weight="normal" font-style="normal" font-variant="normal" fill="rgb(0,0,0)"><tspan x="80.159 90.599 101.158 111.598 122.158 132.597 143.157 153.597 164.156 174.596 185.155 195.595 206.155 216.594 227.154 237.594 248.153 258.593 269.152 279.592" y="461.81">．保护江豚最有效的方法是将其转移到水族馆</tspan></text><text xml:space="preserve" font-family="'Times New Roman', serif" font-size="10.45" font-weight="normal" font-style="normal" font-variant="normal" fill="rgb(0,0,0)"><tspan x="73.200" y="485.33">D</tspan></text><text xml:space="preserve" font-family="'SimSun', serif" font-size="10.45" font-weight="normal" font-style="normal" font-variant="normal" fill="rgb(0,0,0)"><tspan x="80.640 91.080 101.639 112.079 122.639 133.078 143.638 154.078 164.637 175.077 185.636 196.076 206.636 217.075 227.635 238.075 248.634 259.074 269.633 280.073 290.632" y="485.21">．气候变化是导致江豚数量急剧下降的主要原因</tspan></text><text xml:space="preserve" font-family="'Times New Roman', serif" font-size="10.45" font-weight="normal" font-style="normal" font-variant="normal" fill="rgb(0,0,0)"><tspan x="54.120" y="508.73">7</tspan></text><text xml:space="preserve" font-family="'SimSun', serif" font-size="10.45" font-weight="normal" font-style="normal" font-variant="normal" fill="rgb(0,0,0)"><tspan x="59.400 69.600 80.040 90.599 101.039 111.599 122.038 132.598 143.038 153.597 164.037 174.596 185.036 195.596 206.035 216.595 227.035 237.600 247.920 258.360 268.919 279.359 289.918 300.358 310.918 321.358 331.917 342.357 352.916 363.359 373.680 384.120 394.679 405.119 415.678 426.118 436.680 447.120 457.679 467.880 478.440 488.880 499.440 509.640 520.200 530.640" y="508.61">．枯叶蝶的翅膀能完美地模仿一片枯叶，伪装起来躲避捕食者攻击。是什么赋予了它这种“天赋”呢？原</tspan></text><text xml:space="preserve" font-family="'SimSun', serif" font-size="10.45" font-weight="normal" font-style="normal" font-variant="normal" fill="rgb(0,0,0)"><tspan x="54.120 64.680 74.520 84.960 95.519 105.959 116.519 126.958 137.518 147.958 158.517 168.957 179.516 189.956 200.516 210.955 221.515 231.955 242.514 252.954 263.513 273.953 284.512 294.959 304.920 315.360 325.919 336.359 346.918 357.358 367.918 378.358 388.917 399.357 409.916 420.356 430.915 441.355 451.915 462.355 472.914 483.354 493.913 504.353 514.912 525.352 535.919" y="532.01">来，基因的进化压力驱动了蝴蝶种群翅膀的形态变化。这种翅膀的多态性在多个枯叶蝶物种中一直保持着，</tspan></text><text xml:space="preserve" font-family="'SimSun', serif" font-size="10.45" font-weight="normal" font-style="normal" font-variant="normal" fill="rgb(0,0,0)"><tspan x="54.120 64.560 75.119 85.559 96.118 106.558 117.118 127.558 138.117 148.557 159.116 169.556 180.116 190.555 201.115 211.555 222.114 232.554 243.113 253.553 264.113 274.552 285.112 295.552 306.111 316.551 327.110 337.550 348.109 358.549 369.120 379.560 390.120 400.680 411.120 421.679 432.119 442.680 453.120 463.560 474.119 484.559 495.118 505.558 516.118 526.558" y="555.41">由于特定栖息地的特定植物的增长，蝴蝶通过不同的翅膀图案获得更多的“保护利益”。对于枯叶蝶在特</tspan></text><text xml:space="preserve" font-family="'SimSun', serif" font-size="10.45" font-weight="normal" font-style="normal" font-variant="normal" fill="rgb(0,0,0)"><tspan x="54.120 64.560 75.119 85.559 96.118 106.558 117.118 127.558 138.117 148.557 159.116 169.556 180.116 190.555 201.115 211.555 222.114 232.554 243.113 253.553 264.113 274.552 285.112 295.552 306.111 316.551 327.110" y="578.81">定栖息地会表现出不同翅膀图案的现象，下列分析正确的是（</tspan></text><text xml:space="preserve" font-family="'SimSun', serif" font-size="10.45" font-weight="normal" font-style="normal" font-variant="normal" fill="rgb(0,0,0)"><tspan x="358.680" y="578.81">）</tspan></text><text xml:space="preserve" font-family="'Times New Roman', serif" font-size="10.45" font-weight="normal" font-style="normal" font-variant="normal" fill="rgb(0,0,0)"><tspan x="73.200" y="602.33">A</tspan></text><text xml:space="preserve" font-family="'SimSun', serif" font-size="10.45" font-weight="normal" font-style="normal" font-variant="normal" fill="rgb(0,0,0)"><tspan x="80.640 91.080 101.639 112.079 122.639 133.078 143.638 154.078 164.637 175.077 185.636 196.076 206.636 217.075 227.635 238.075 248.634" y="602.21">．枯叶蝶翅膀图案的性状仅由环境决定</tspan></text><text xml:space="preserve" font-family="'Times New Roman', serif" font-size="10.45" font-weight="normal" font-style="normal" font-variant="normal" fill="rgb(0,0,0)"><tspan x="73.200" y="625.73">B</tspan></text><text xml:space="preserve" font-family="'SimSun', serif" font-size="10.45" font-weight="normal" font-style="normal" font-variant="normal" fill="rgb(0,0,0)"><tspan x="80.159 90.599 101.158 111.598 122.158 132.597 143.157 153.597 164.156 174.596 185.155 195.595 206.155 216.594 227.154 237.594 248.153 258.593 269.152 279.592" y="625.61">．枯叶蝶翅膀的形态体现了生物对环境的影响</tspan></text><text xml:space="preserve" font-family="'Times New Roman', serif" font-size="10.45" font-weight="normal" font-style="normal" font-variant="normal" fill="rgb(0,0,0)"><tspan x="73.200" y="649.13">C</tspan></text><text xml:space="preserve" font-family="'SimSun', serif" font-size="10.45" font-weight="normal" font-style="normal" font-variant="normal" fill="rgb(0,0,0)"><tspan x="80.159 90.599 101.158 111.598 122.158 132.597 143.157 153.597 164.156 174.596 185.155 195.595 206.155 216.594 227.154 237.594 248.153 258.593 269.152" y="649.01">．枯叶蝶翅膀出现此现象是自然选择的结果</tspan></text><text xml:space="preserve" font-family="'Times New Roman', serif" font-size="10.45" font-weight="normal" font-style="normal" font-variant="normal" fill="rgb(0,0,0)"><tspan x="73.200" y="672.53">D</tspan></text><text xml:space="preserve" font-family="'SimSun', serif" font-size="10.45" font-weight="normal" font-style="normal" font-variant="normal" fill="rgb(0,0,0)"><tspan x="80.640 91.080 101.639 112.079 122.639 133.078 143.638 154.078 164.637 175.077 185.636 196.076 206.636 217.075 227.635 238.075 248.634 259.074 269.633 280.073" y="672.41">．枯叶蝶为了适应其栖息环境产生了有利变异</tspan></text><text xml:space="preserve" font-family="'SimSun', serif" font-size="10.45" font-weight="normal" font-style="normal" font-variant="normal" fill="rgb(0,0,0)"><tspan x="75.120" y="695.81">（</tspan></text><text xml:space="preserve" font-family="'SimSun', serif" font-size="10.45" font-weight="normal" font-style="normal" font-variant="normal" fill="rgb(0,0,255)"><tspan x="85.680 96.120 106.679 117.119" y="695.81">湖北特色</tspan></text><text xml:space="preserve" font-family="'SimSun', serif" font-size="10.45" font-weight="normal" font-style="normal" font-variant="normal" fill="rgb(0,0,0)"><tspan x="127.680 138.120 148.560 159.119 169.559 180.118 190.558 201.118 211.558 222.117 232.557 243.116 253.556 264.116 274.555 285.115 295.555" y="695.81">）湖北省的省树水杉是一种古老的孑（</tspan></text><text xml:space="preserve" font-family="'Times New Roman', serif" font-size="10.45" font-weight="normal" font-style="normal" font-variant="normal" fill="rgb(0,0,0)"><tspan x="306.120 309.000 312.000" y="695.93">jié</tspan></text><text xml:space="preserve" font-family="'SimSun', serif" font-size="10.45" font-weight="normal" font-style="normal" font-variant="normal" fill="rgb(0,0,0)"><tspan x="316.559 326.999 337.558 347.998 358.557 368.997 379.557 389.997 400.556 410.996 421.555 431.995 442.554 452.994 463.554 473.993 484.553 494.993 505.552 515.992 526.551" y="695.81">）遗植物，因地质变迁和气候变化曾一度被认为</tspan></text><text xml:space="preserve" font-family="'SimSun', serif" font-size="10.45" font-weight="normal" font-style="normal" font-variant="normal" fill="rgb(0,0,0)"><tspan x="54.120 64.560 75.119 85.559 96.120 106.320 116.760" y="719.21">已经灭绝，直到</tspan></text><text xml:space="preserve" font-family="'Times New Roman', serif" font-size="10.45" font-weight="normal" font-style="normal" font-variant="normal" fill="rgb(0,0,0)"><tspan x="129.959 135.239" y="719.33">20</tspan></text><text xml:space="preserve" font-family="'SimSun', serif" font-size="10.45" font-weight="normal" font-style="normal" font-variant="normal" fill="rgb(0,0,0)"><tspan x="140.464 143.040 153.480" y="719.33"> 世纪</tspan></text><text xml:space="preserve" font-family="'Times New Roman', serif" font-size="10.45" font-weight="normal" font-style="normal" font-variant="normal" fill="rgb(0,0,0)"><tspan x="166.680 171.960" y="719.33">40</tspan></text><text xml:space="preserve" font-family="'SimSun', serif" font-size="10.45" font-weight="normal" font-style="normal" font-variant="normal" fill="rgb(0,0,0)"><tspan x="177.185 179.759 190.199 200.758 211.198 221.758 232.197 242.757 253.197 263.756 274.196 284.755 295.195 305.520 315.959 326.399 336.958 347.398 357.957 368.397 378.957 389.397 399.959 410.159 420.599 431.158 441.598 452.157 462.720 472.919 483.359 493.918 504.358 514.917 525.357 535.919" y="719.33"> 年代在四川省万县磨刀溪镇（现属湖北省利川市）被重新发现。水杉高大通直，</tspan></text><text xml:space="preserve" font-family="'SimSun', serif" font-size="10.45" font-weight="normal" font-style="normal" font-variant="normal" fill="rgb(0,0,0)"><tspan x="54.120 64.560 75.119 85.559 96.118 106.558 117.118 127.558 138.117 148.557 159.116 169.556 180.116 190.555 201.115 211.555 222.114 232.554 243.113 253.553 264.113 274.552 285.112 295.552 306.111 316.551" y="742.61">树形优美，其种子是裸露的，外面没有果皮包被。据此完成</tspan></text><text xml:space="preserve" font-family="'Times New Roman', serif" font-size="10.45" font-weight="normal" font-style="normal" font-variant="normal" fill="rgb(0,0,0)"><tspan x="329.759 335.039 340.679" y="742.73">8~9</tspan></text><text xml:space="preserve" font-family="'SimSun', serif" font-size="10.45" font-weight="normal" font-style="normal" font-variant="normal" fill="rgb(0,0,0)"><tspan x="345.904 348.600 359.040" y="742.73"> 题。</tspan></text><text xml:space="preserve" font-family="'Times New Roman', serif" font-size="10.45" font-weight="normal" font-style="normal" font-variant="normal" fill="rgb(0,0,0)"><tspan x="54.120" y="766.13">8</tspan></text><text xml:space="preserve" font-family="'SimSun', serif" font-size="10.45" font-weight="normal" font-style="normal" font-variant="normal" fill="rgb(0,0,0)"><tspan x="59.400 69.840 80.399 90.839 101.399 111.838 122.398 132.838 143.397 153.837 164.396 174.836 185.396 195.835 206.395 216.835 227.394 237.834 248.393" y="766.01">．下列植物中，与水杉亲缘关系最近的是（</tspan></text><text xml:space="preserve" font-family="'SimSun', serif" font-size="10.45" font-weight="normal" font-style="normal" font-variant="normal" fill="rgb(0,0,0)"><tspan x="270.840" y="766.01">）</tspan></text></svg>